<svg width="35" height="31" viewBox="0 0 35 31" fill="none" xmlns="http://www.w3.org/2000/svg"><path d="M17.5 12.1738C20.6907 12.1738 23.2773 9.58722 23.2773 6.39648C23.2773 3.20575 20.6907 0.619141 17.5 0.619141C14.3093 0.619141 11.7227 3.20575 11.7227 6.39648C11.7227 9.58722 14.3093 12.1738 17.5 12.1738Z" fill="url(#paint0_linear_1065_853)"/><path d="M29.1875 12.1738C31.2046 12.1738 32.8398 10.5386 32.8398 8.52148C32.8398 6.50435 31.2046 4.86914 29.1875 4.86914C27.1704 4.86914 25.5352 6.50435 25.5352 8.52148C25.5352 10.5386 27.1704 12.1738 29.1875 12.1738Z" fill="url(#paint1_linear_1065_853)"/><path d="M5.8125 12.1738C7.82963 12.1738 9.46484 10.5386 9.46484 8.52148C9.46484 6.50435 7.82963 4.86914 5.8125 4.86914C3.79537 4.86914 2.16016 6.50435 2.16016 8.52148C2.16016 10.5386 3.79537 12.1738 5.8125 12.1738Z" fill="url(#paint2_linear_1065_853)"/><path d="M9.41105 15.4536C7.97336 14.2757 6.67133 14.4316 5.00898 14.4316C2.52273 14.4316 0.5 16.4424 0.5 18.9134V26.1656C0.5 27.2387 1.3759 28.1113 2.45301 28.1113C7.10317 28.1113 6.54297 28.1955 6.54297 27.9108C6.54297 22.7719 5.93429 19.0032 9.41105 15.4536Z" fill="url(#paint3_linear_1065_853)"/><path d="M19.0806 14.4582C16.177 14.2161 13.6533 14.461 11.4764 16.2579C7.83357 19.1757 8.53462 23.1045 8.53462 27.9108C8.53462 29.1824 9.56923 30.2364 10.8602 30.2364C24.8773 30.2364 25.4352 30.6885 26.2664 28.8478C26.539 28.2253 26.4643 28.4231 26.4643 22.4682C26.4643 17.7383 22.3688 14.4582 19.0806 14.4582Z" fill="url(#paint4_linear_1065_853)"/><path d="M29.9919 14.4315C28.3205 14.4315 27.0256 14.2771 25.5898 15.4535C29.0406 18.9767 28.4579 22.4882 28.4579 27.9106C28.4579 28.1971 27.9929 28.1112 32.4782 28.1112C33.5938 28.1112 34.5009 27.2074 34.5009 26.0964V18.9132C34.5009 16.4423 32.4782 14.4315 29.9919 14.4315Z" fill="url(#paint5_linear_1065_853)"/><defs><linearGradient id="paint0_linear_1065_853" x1="30.7502" y1="-16.0273" x2="4.99287" y2="-13.4479" gradientUnits="userSpaceOnUse"><stop offset="0.164688" stop-color="#DEC7FF"/><stop offset="0.855177" stop-color="#5C27FE"/></linearGradient><linearGradient id="paint1_linear_1065_853" x1="37.5641" y1="-5.65446" x2="21.2807" y2="-4.02384" gradientUnits="userSpaceOnUse"><stop offset="0.164688" stop-color="#DEC7FF"/><stop offset="0.855177" stop-color="#5C27FE"/></linearGradient><linearGradient id="paint2_linear_1065_853" x1="14.1891" y1="-5.65446" x2="-2.09431" y2="-4.02384" gradientUnits="userSpaceOnUse"><stop offset="0.164688" stop-color="#DEC7FF"/><stop offset="0.855177" stop-color="#5C27FE"/></linearGradient><linearGradient id="paint3_linear_1065_853" x1="15.1742" y1="-5.30959" x2="-4.80447" y2="-4.0081" gradientUnits="userSpaceOnUse"><stop offset="0.164688" stop-color="#DEC7FF"/><stop offset="0.855177" stop-color="#5C27FE"/></linearGradient><linearGradient id="paint4_linear_1065_853" x1="38.1106" y1="-8.53467" x2="-1.88821" y2="-4.00346" gradientUnits="userSpaceOnUse"><stop offset="0.164688" stop-color="#DEC7FF"/><stop offset="0.855177" stop-color="#5C27FE"/></linearGradient><linearGradient id="paint5_linear_1065_853" x1="40.264" y1="-5.31003" x2="20.2854" y2="-4.00857" gradientUnits="userSpaceOnUse"><stop offset="0.164688" stop-color="#DEC7FF"/><stop offset="0.855177" stop-color="#5C27FE"/></linearGradient></defs></svg>