<svg width="34" height="35" viewBox="0 0 34 35" fill="none" xmlns="http://www.w3.org/2000/svg"><path d="M15.7711 4.90991C15.7711 3.80534 14.8711 2.89661 13.7752 3.035C6.00736 4.01597 0 10.6469 0 18.681C0 27.3911 7.06094 34.4521 15.7711 34.4521C23.8052 34.4521 30.4361 28.4447 31.4171 20.6769C31.5555 19.581 30.6467 18.681 29.5422 18.681H17.7711C16.6665 18.681 15.7711 17.7856 15.7711 16.681V4.90991Z" fill="black"/><path d="M15.7711 4.90991C15.7711 3.80534 14.8711 2.89661 13.7752 3.035C6.00736 4.01597 0 10.6469 0 18.681C0 27.3911 7.06094 34.4521 15.7711 34.4521C23.8052 34.4521 30.4361 28.4447 31.4171 20.6769C31.5555 19.581 30.6467 18.681 29.5422 18.681H17.7711C16.6665 18.681 15.7711 17.7856 15.7711 16.681V4.90991Z" fill="url(#paint0_linear_1065_881)"/><path d="M20.2224 0.577237C19.1266 0.438845 18.2266 1.34758 18.2266 2.45215V14.2232C18.2266 15.3278 19.122 16.2232 20.2266 16.2232H31.9976C33.1022 16.2232 34.011 15.3232 33.8726 14.2274C32.9741 7.11317 27.3366 1.47566 20.2224 0.577237Z" fill="black"/><path d="M20.2224 0.577237C19.1266 0.438845 18.2266 1.34758 18.2266 2.45215V14.2232C18.2266 15.3278 19.122 16.2232 20.2266 16.2232H31.9976C33.1022 16.2232 34.011 15.3232 33.8726 14.2274C32.9741 7.11317 27.3366 1.47566 20.2224 0.577237Z" fill="url(#paint1_linear_1065_881)"/><defs><linearGradient id="paint0_linear_1065_881" x1="51.9417" y1="-42.5317" x2="-18.3711" y2="-35.4906" gradientUnits="userSpaceOnUse"><stop offset="0.164688" stop-color="#DEC7FF"/><stop offset="0.855177" stop-color="#5C27FE"/></linearGradient><linearGradient id="paint1_linear_1065_881" x1="44.1974" y1="-22.2687" x2="9.04102" y2="-18.7481" gradientUnits="userSpaceOnUse"><stop offset="0.164688" stop-color="#DEC7FF"/><stop offset="0.855177" stop-color="#5C27FE"/></linearGradient></defs></svg>